<svg width="18" height="28" viewBox="0 0 18 28" fill="none" xmlns="http://www.w3.org/2000/svg">
<path d="M8.87 1.42C7.62042 1.46401 6.43661 1.99088 5.56752 2.8898C4.69844 3.78873 4.21182 4.98965 4.21001 6.24C4.21884 6.86499 4.35277 7.48188 4.60391 8.05426C4.85505 8.62665 5.21831 9.14292 5.67224 9.57262C6.12617 10.0023 6.66158 10.3367 7.24687 10.5561C7.83216 10.7755 8.45546 10.8754 9.08 10.85C11.128 10.9325 13.064 11.8067 14.4802 13.2885C15.8963 14.7703 16.6819 16.744 16.6716 18.7936C16.6612 20.8433 15.8556 22.8088 14.4246 24.2762C12.9935 25.7436 11.0487 26.5982 9 26.66C7.9561 26.6692 6.92064 26.4722 5.95305 26.0804C4.98545 25.6885 4.10477 25.1094 3.3615 24.3763C2.61823 23.6433 2.02701 22.7707 1.62177 21.8086C1.21652 20.8465 1.00522 19.8139 1 18.77" stroke="currentColor" stroke-width="1.5" stroke-miterlimit="10"/>
</svg>
