<svg width="119" height="6" viewBox="0 0 119 6" fill="none" xmlns="http://www.w3.org/2000/svg">
<path d="M3.65302 4.01421H1.39208L0.683876 5.75646H0.301514L2.53918 0.286987L4.7436 5.75646H4.36123L3.65302 4.01421ZM3.52668 3.69502L2.53253 1.18139L1.52176 3.69502H3.52668Z" fill="#1E1E1E"/>
<path d="M16.557 5.75648L14.8381 3.2495H14.6785V5.75648H14.3293V0.446594H15.0941C15.4997 0.446594 15.8655 0.479843 16.2179 0.715911C16.6335 1.00185 16.7665 1.44074 16.7665 1.85303C16.7665 2.37837 16.5371 2.92033 15.8754 3.1431C15.5961 3.23952 15.3434 3.24617 15.2237 3.24617L16.9594 5.75315H16.5604L16.557 5.75648ZM14.6785 2.9303H15.1872C15.9419 2.9303 16.3974 2.53132 16.3974 1.84638C16.3974 1.3144 16.1348 1.03511 15.9286 0.922059C15.7059 0.795712 15.3235 0.76246 15.1173 0.76246H14.6785V2.92698V2.9303Z" fill="#1E1E1E"/>
<path d="M31.057 1.53048C30.6015 0.998496 29.9498 0.695931 29.2648 0.695931C27.905 0.695931 26.8842 1.7865 26.8842 3.13309C26.8842 4.7091 28.1975 5.53035 29.2715 5.53035C29.2715 5.53035 29.2715 5.53035 29.2715 5.53035C29.8035 5.53035 30.515 5.31423 31.0536 4.72572V5.18788C30.5117 5.66667 29.86 5.84954 29.2848 5.84954C27.6922 5.84954 26.5151 4.59938 26.5151 3.11979C26.5151 1.64021 27.742 0.380066 29.2682 0.380066C30.2789 0.380066 30.8907 0.922027 31.0503 1.07165V1.53381L31.057 1.53048Z" fill="#1E1E1E"/>
<path d="M41.3076 2.70088H44.5228V0.446594H44.8719V5.75648H44.5228V3.01675H41.3076V5.75648H40.9585V0.446594H41.3076V2.70088Z" fill="#1E1E1E"/>
<path d="M55.4119 0.44989V5.75977H55.0627V0.44989H55.4119Z" fill="#1E1E1E"/>
<path d="M66.7232 0.765788V5.75648H66.3741V0.765788H64.9976V0.446594H68.103V0.765788H66.7265H66.7232Z" fill="#1E1E1E"/>
<path d="M80.229 0.765788H78.0312V2.69091H80.1791V3.0101H78.0312V5.43728H80.229V5.75648H77.6821V0.446594H80.229V0.765788Z" fill="#1E1E1E"/>
<path d="M94.3831 1.53048C93.9276 0.998496 93.2759 0.695931 92.591 0.695931C91.2311 0.695931 90.2104 1.7865 90.2104 3.13309C90.2104 4.7091 91.5237 5.53035 92.5977 5.53035C93.1296 5.53035 93.8412 5.31423 94.3798 4.72572V5.18788C93.8378 5.66667 93.1862 5.84954 92.6109 5.84954C91.0183 5.84954 89.8413 4.59938 89.8413 3.11979C89.8413 1.64021 91.0682 0.380066 92.5943 0.380066C93.6051 0.380066 94.2169 0.922027 94.3765 1.07165V1.53381L94.3831 1.53048Z" fill="#1E1E1E"/>
<path d="M105.405 0.765788V5.75648H105.056V0.765788H103.68V0.446594H106.785V0.765788H105.409H105.405Z" fill="#1E1E1E"/>
<path d="M118.386 1.34764C118.06 0.70926 117.485 0.695959 117.342 0.695959C116.713 0.695959 116.354 1.14815 116.354 1.68346C116.354 2.25534 116.753 2.44819 117.285 2.71085C117.811 2.96687 118.073 3.0766 118.343 3.26944C118.572 3.42904 118.908 3.70833 118.908 4.29684C118.908 5.18791 118.16 5.84957 117.252 5.84957C116.567 5.84957 116.218 5.52373 116.018 5.29099C115.812 5.05159 115.723 4.84545 115.676 4.70913L115.979 4.56615C116.052 4.7723 116.185 4.97844 116.265 5.07486C116.504 5.37743 116.893 5.52705 117.259 5.52705C117.977 5.52705 118.539 5.00172 118.539 4.30016C118.539 4.01422 118.429 3.71165 118.02 3.46561C117.867 3.37916 117.558 3.21957 117.119 3.00345C116.594 2.74743 116.331 2.60446 116.148 2.30189C116.028 2.1024 115.982 1.9029 115.982 1.69675C115.982 1.08497 116.398 0.37677 117.342 0.37677C117.874 0.37677 118.359 0.632784 118.632 1.13152L118.376 1.34764H118.386Z" fill="#1E1E1E"/>
</svg>
