<svg width="50" height="50" viewBox="0 0 50 50" fill="none" xmlns="http://www.w3.org/2000/svg">
<path d="M24.9867 0C24.9136 0 24.8437 0.00332491 24.7706 0.00997473H24.6243C24.5744 0.00997473 24.5312 0.0132996 24.4514 0.0265993C10.9689 0.315866 0 11.5175 0 24.9933C0 38.4692 11.0454 49.7806 24.6309 49.9801L24.7739 49.9867C24.8437 49.9933 24.9136 49.9967 24.9867 49.9967C38.7751 49.9967 49.99 38.7784 49.99 24.9933C49.99 11.2083 38.7751 0 24.9867 0ZM24.0358 48.7532C15.1051 48.3974 7.07541 43.0177 3.34818 34.9049H24.0358V48.7532ZM24.0358 33.7212H2.8428C1.74225 30.9416 1.18699 28.009 1.18699 24.9933C1.18367 14.2173 8.36547 4.94082 18.5663 2.10467C16.1823 3.95664 14.7294 6.82604 14.7294 9.91488C14.7294 15.1084 18.8689 19.4474 24.0358 19.7533V33.7212ZM24.0358 18.5796C19.5272 18.2704 15.923 14.4634 15.923 9.91156C15.923 5.35976 19.4574 1.55273 24.0391 1.24684V18.5829L24.0358 18.5796ZM25.2194 19.8497C32.6706 20.1589 38.7751 26.2668 39.081 33.7212H25.2194V19.8497ZM25.2194 34.9049H39.081C38.7751 42.3461 32.6706 48.4473 25.2194 48.7565V34.9049ZM33.4486 47.237C37.6546 44.361 40.2946 39.5498 40.2946 34.3131C40.2946 25.9276 33.5683 18.9852 25.2228 18.6694V1.20362C38.2464 1.32996 48.803 11.9531 48.803 24.9967C48.803 34.9714 42.5389 43.7824 33.4519 47.2403L33.4486 47.237Z" fill="#1E1E1E"/>
</svg>
