<?xml version="1.0" standalone="no"?>
<!DOCTYPE svg PUBLIC "-//W3C//DTD SVG 20010904//EN"
 "http://www.w3.org/TR/2001/REC-SVG-20010904/DTD/svg10.dtd">
<svg version="1.0" xmlns="http://www.w3.org/2000/svg"
 width="260.000000pt" height="260.000000pt" viewBox="0 0 260.000000 260.000000"
 preserveAspectRatio="xMidYMid meet">
<metadata>
Created by potrace 1.14, written by Peter Selinger 2001-2017
</metadata>
<g transform="translate(0.000000,260.000000) scale(0.100000,-0.100000)"
fill="#000000" stroke="none">
<path d="M1242 2383 c-6 -2 -10 -9 -7 -13 3 -5 0 -12 -6 -16 -7 -4 -9 -3 -5 4
3 6 2 13 -4 17 -5 3 -10 1 -10 -6 0 -8 -4 -8 -15 1 -13 10 -19 9 -37 -6 -12
-11 -18 -14 -15 -8 4 7 0 15 -9 18 -8 3 -13 2 -10 -3 3 -5 -1 -12 -10 -15 -8
-3 -12 -2 -9 4 9 14 -8 12 -24 -2 -9 -8 -11 -8 -8 -2 4 7 0 14 -8 17 -9 4 -12
1 -8 -9 3 -9 -2 -14 -17 -14 -13 0 -19 4 -14 12 5 7 3 8 -5 4 -7 -5 -10 -14
-7 -22 3 -7 0 -16 -6 -20 -6 -4 -8 -3 -4 4 3 6 2 13 -4 17 -6 4 -7 11 -4 17 4
6 2 8 -4 5 -5 -4 -8 -15 -5 -25 3 -12 -1 -19 -10 -19 -9 0 -13 7 -10 16 2 9
-5 0 -17 -19 -12 -19 -19 -27 -16 -18 3 12 1 15 -9 11 -8 -3 -12 -9 -9 -14 3
-5 -3 -6 -12 -2 -13 5 -15 3 -10 -8 4 -8 0 -5 -8 5 -16 19 -16 19 -16 -3 0
-20 -1 -21 -16 -7 -19 20 -21 20 -21 1 0 -8 5 -11 10 -8 6 3 7 1 3 -5 -4 -6
-13 -9 -21 -6 -8 4 -12 11 -8 17 3 6 1 7 -6 3 -9 -6 -9 -11 1 -24 12 -14 10
-14 -12 -2 -22 12 -24 12 -12 -3 11 -13 10 -15 -5 -12 -10 1 -16 9 -15 16 2 8
0 11 -4 6 -4 -4 -9 -18 -11 -30 -2 -18 -1 -19 8 -7 9 13 10 13 6 0 -2 -9 -14
-14 -26 -13 -12 2 -20 -1 -17 -6 3 -4 -6 -13 -20 -20 -14 -6 -23 -7 -19 -2 10
18 -13 21 -26 4 -10 -12 -10 -14 -1 -9 6 4 12 3 12 -3 0 -5 -5 -13 -10 -16 -6
-4 -8 -10 -6 -14 3 -3 -4 -8 -15 -9 -42 -4 -48 -6 -43 -14 3 -5 11 -5 17 -1 7
4 6 -1 -2 -10 -10 -13 -17 -14 -26 -7 -10 8 -15 8 -21 -1 -4 -8 -3 -9 4 -5 7
4 12 2 12 -3 0 -10 -23 -16 -45 -11 -5 1 -7 -2 -3 -6 4 -4 2 -14 -4 -23 -10
-12 -7 -12 8 2 17 14 21 14 21 3 0 -8 -3 -14 -6 -14 -12 2 -41 -14 -37 -21 3
-4 -5 -8 -16 -8 -28 -2 -43 -19 -27 -28 7 -5 10 -4 6 1 -3 6 4 11 16 11 20 2
20 1 4 -8 -9 -6 -14 -15 -11 -21 4 -7 2 -8 -4 -4 -21 13 -51 15 -58 4 -4 -7
-2 -8 4 -4 6 4 16 -4 23 -16 11 -21 11 -22 -4 -9 -15 12 -17 11 -18 -5 -1 -11
-1 -23 0 -28 1 -5 -6 -6 -15 -2 -15 6 -15 4 -3 -10 13 -16 12 -16 -7 -6 -16 9
-21 8 -21 -3 0 -8 5 -12 10 -8 5 3 5 -2 -1 -13 -5 -11 -7 -24 -5 -30 7 -21
-30 -26 -45 -7 -11 15 -12 13 -7 -21 4 -24 3 -36 -3 -32 -6 3 -13 -1 -16 -10
-9 -24 -7 -31 5 -14 9 12 10 11 4 -5 -4 -11 -8 -25 -9 -32 -1 -7 -6 -16 -11
-20 -4 -4 -5 -1 0 7 6 12 5 12 -4 4 -10 -10 -10 -17 0 -35 11 -21 11 -23 -3
-11 -11 9 -18 10 -23 2 -3 -6 -10 -8 -14 -5 -5 2 -7 -13 -6 -35 2 -22 -1 -38
-5 -35 -5 3 -11 1 -14 -4 -4 -5 -1 -13 5 -17 8 -5 9 -3 4 6 -5 8 -4 11 3 7 12
-8 10 -32 -3 -44 -4 -4 -5 -2 -1 5 4 6 3 12 -3 12 -5 0 -9 -9 -8 -20 1 -13 6
-19 16 -15 10 4 11 2 4 -7 -6 -7 -9 -21 -8 -30 2 -10 -1 -18 -7 -18 -6 0 -8 7
-5 15 4 8 2 17 -2 20 -5 2 -7 -21 -4 -53 9 -106 7 -176 -5 -168 -5 3 -9 -2 -9
-10 0 -8 6 -13 13 -10 9 3 11 -3 8 -20 -3 -14 0 -24 8 -24 6 0 3 -7 -8 -15
-15 -11 -16 -15 -4 -15 10 -1 9 -4 -5 -10 -17 -7 -17 -9 -3 -9 11 -1 15 -6 12
-15 -3 -8 -1 -17 5 -20 6 -4 7 -14 4 -23 -5 -12 -3 -14 7 -8 9 5 11 4 6 -4 -4
-6 -11 -9 -16 -6 -4 3 -10 -1 -13 -9 -3 -8 1 -13 11 -12 9 0 16 -5 14 -11 -1
-7 2 -13 8 -13 5 0 10 -5 10 -12 0 -9 -3 -9 -12 0 -15 15 -28 15 -28 1 0 -5 5
-7 10 -4 6 3 10 -1 10 -10 0 -10 5 -13 12 -9 8 5 9 2 5 -9 -3 -9 -2 -19 3 -22
5 -3 7 -14 5 -25 -2 -12 0 -18 6 -15 5 4 7 10 4 15 -3 5 0 12 7 16 7 4 10 4 6
-1 -4 -4 -2 -15 5 -23 9 -13 9 -14 0 -8 -7 4 -13 2 -13 -3 0 -6 5 -11 11 -11
7 0 9 -12 7 -30 -3 -17 0 -34 5 -37 6 -4 7 -1 2 8 -7 12 -5 12 6 1 12 -11 12
-14 -1 -22 -8 -5 -10 -10 -4 -10 6 0 11 -6 12 -12 2 -30 9 -53 15 -50 4 1 9 2
12 2 3 0 -2 11 -11 25 -10 15 -12 25 -5 25 6 0 11 -6 11 -14 0 -21 21 -31 31
-15 5 8 9 10 9 5 0 -6 -10 -21 -22 -35 -15 -17 -17 -20 -5 -11 17 12 20 12 30
-5 18 -31 17 -57 -2 -51 -11 4 -10 1 4 -10 11 -8 19 -19 18 -23 -1 -4 5 -8 13
-8 12 0 12 3 -1 17 -14 15 -14 18 -1 23 11 4 13 1 9 -10 -4 -9 -2 -14 3 -10 6
3 10 -3 11 -13 1 -10 -6 -20 -15 -22 -13 -3 -12 -5 6 -10 12 -3 20 -2 16 3 -3
5 0 9 5 9 6 0 11 -6 11 -13 0 -7 9 -18 21 -25 17 -11 19 -16 7 -29 -9 -12 -10
-15 0 -9 7 4 12 2 12 -5 0 -8 4 -8 15 1 12 10 16 9 21 -4 3 -9 11 -13 18 -9 6
3 8 3 4 -2 -4 -4 -3 -17 3 -28 7 -13 7 -17 1 -13 -6 3 -14 1 -18 -6 -4 -7 -4
-10 1 -6 4 4 16 -3 27 -15 11 -12 17 -16 13 -9 -4 7 0 12 10 12 11 0 15 -5 11
-15 -3 -8 0 -14 7 -12 7 1 11 -4 9 -11 -1 -8 2 -11 9 -7 8 5 8 10 0 18 -14 14
-14 27 -1 27 6 0 9 -6 8 -13 -2 -6 3 -11 10 -9 14 2 16 -14 2 -23 -5 -3 -10
-11 -10 -17 0 -6 9 -1 20 12 11 13 20 18 20 12 0 -6 -4 -14 -10 -17 -5 -3 -10
-11 -10 -17 0 -6 10 -3 22 8 l22 19 -19 -30 c-14 -22 -15 -27 -3 -17 9 7 18 9
20 5 3 -4 3 -2 2 5 -2 6 1 12 6 12 6 0 10 -5 10 -11 0 -5 6 -7 13 -3 6 4 3 -3
-8 -16 l-20 -23 30 19 c26 16 28 17 16 1 -13 -16 -2 -25 13 -10 3 4 15 7 25 8
13 1 17 -4 13 -17 -4 -17 -5 -17 -17 -2 -10 14 -12 14 -12 2 0 -9 9 -21 20
-27 13 -9 17 -9 12 -1 -4 7 0 10 11 8 11 -2 24 -12 31 -23 7 -11 12 -15 13 -8
0 6 9 11 19 10 11 0 17 -5 15 -9 -3 -5 -10 -6 -15 -3 -15 10 -10 -2 8 -16 14
-12 15 -12 9 0 -7 11 1 12 38 9 36 -4 49 -1 57 11 8 13 9 13 8 1 -3 -22 12
-51 22 -44 5 3 6 -3 3 -13 -5 -16 -3 -15 11 2 16 19 16 19 11 -10 -4 -16 -3
-24 0 -17 3 6 11 9 17 5 6 -4 23 -7 37 -8 14 -1 32 -5 39 -10 10 -5 12 -4 7 3
-4 7 -2 20 4 29 10 15 11 15 6 1 -7 -24 5 -30 21 -10 12 16 13 16 7 -1 -3 -9
-1 -17 4 -17 6 0 13 8 15 18 4 14 5 15 6 1 0 -9 11 -19 24 -22 21 -6 21 -5 3
8 -18 13 -18 14 3 12 11 -1 21 -5 21 -10 0 -5 8 -3 17 4 14 12 16 12 11 -1 -4
-11 0 -16 13 -17 10 -1 19 4 19 12 0 8 4 16 9 20 6 3 8 -4 6 -16 -4 -17 -2
-20 7 -11 14 14 32 16 24 4 -3 -5 1 -9 9 -9 10 0 11 5 4 18 -7 15 -6 17 6 13
8 -4 15 -10 15 -15 0 -6 6 -4 14 3 8 7 11 18 8 23 -3 6 2 4 11 -4 13 -10 17
-10 17 -1 0 7 7 4 18 -7 9 -10 13 -12 7 -4 -7 11 -7 13 2 8 16 -10 44 3 36 16
-4 6 -1 7 7 2 7 -4 16 -2 22 6 8 11 9 10 4 -3 -3 -10 0 -20 6 -24 7 -4 8 -3 4
4 -4 7 -2 12 4 12 7 0 10 6 7 14 -7 17 27 14 50 -5 8 -7 13 -8 12 -3 -4 22 2
34 19 34 10 0 24 6 31 12 11 10 13 10 7 1 -4 -7 -3 -13 3 -13 5 0 12 6 15 13
5 9 7 9 12 0 3 -7 10 -13 15 -13 6 0 6 8 -1 19 -7 13 -7 22 0 26 9 6 13 0 12
-16 -1 -3 5 -6 13 -6 7 0 11 6 8 13 -6 16 33 37 50 28 6 -5 5 1 -3 11 -10 12
-10 16 -2 11 7 -4 20 -2 28 5 13 10 17 10 26 -2 8 -11 9 -10 4 5 -5 13 -2 17
9 12 13 -5 19 8 17 34 0 3 8 7 19 7 12 1 17 -3 13 -9 -4 -7 -2 -8 5 -4 9 6 9
11 1 21 -9 11 -6 12 12 7 21 -5 22 -4 9 11 -17 21 -8 22 13 1 15 -14 16 -14
16 0 0 16 15 22 23 9 2 -5 2 -3 1 4 -2 7 1 15 7 19 6 3 3 11 -8 19 -17 13 -17
14 4 9 14 -4 29 2 43 16 18 18 24 20 32 9 7 -12 9 -11 7 1 -3 30 1 41 14 35 6
-4 3 1 -8 11 -20 16 -20 16 2 11 13 -3 26 0 30 5 3 7 1 8 -5 4 -7 -4 -12 -2
-12 3 0 11 13 15 40 12 13 -2 13 -1 0 8 -8 5 -17 8 -21 5 -4 -2 -10 0 -13 5
-4 5 2 8 11 7 24 -4 35 15 20 33 -9 12 -9 13 1 7 6 -4 12 -2 12 3 0 6 5 11 11
11 8 0 8 -5 -1 -15 -7 -8 -9 -15 -5 -15 4 0 15 10 25 22 13 17 15 27 8 36 -11
12 -1 16 32 13 13 -2 13 -1 0 8 -8 5 -17 8 -21 5 -4 -2 -11 1 -15 7 -5 8 -3 9
6 4 10 -6 12 -4 7 8 -8 20 18 43 29 26 4 -7 3 -9 -4 -5 -12 7 -10 -19 2 -31 4
-4 6 -1 4 7 -2 9 3 14 12 12 8 -2 12 0 8 4 -4 4 -2 14 5 23 10 14 10 14 -5 3
-15 -12 -17 -11 -15 7 0 11 4 18 7 16 3 -1 11 3 18 11 7 8 8 14 2 14 -5 0 -10
5 -10 11 0 6 6 9 13 6 8 -3 14 1 14 9 0 7 -4 11 -9 8 -4 -3 -5 2 -2 10 4 10 1
16 -7 16 -7 0 -9 3 -6 6 4 4 13 2 20 -4 10 -9 14 -8 14 3 0 8 -4 15 -9 15 -10
0 -6 34 5 38 16 5 19 1 8 -11 -8 -10 -7 -14 3 -14 9 0 12 8 9 21 -10 44 -11
66 -2 60 5 -3 9 -1 9 5 0 6 7 8 15 5 11 -5 13 -2 9 10 -4 10 -1 16 7 16 7 0 9
3 6 6 -4 4 -13 1 -21 -5 -11 -9 -16 -9 -22 0 -4 7 -3 10 2 7 5 -3 19 5 32 18
12 13 18 24 12 24 -6 0 -8 5 -4 12 5 8 1 9 -12 5 -18 -7 -18 -7 0 8 17 13 15
19 -5 17 -3 -1 -6 5 -6 13 0 10 5 11 18 4 15 -7 17 -6 13 6 -4 8 -10 15 -15
15 -4 0 -5 7 -2 17 5 12 3 14 -8 8 -12 -8 -12 -6 0 8 7 9 10 17 5 17 -4 0 -3
5 4 12 17 17 15 28 -5 22 -15 -5 -15 -4 -4 4 13 9 13 13 0 28 -12 15 -12 17 0
9 11 -6 13 -4 8 8 -3 9 -2 19 2 21 5 3 7 16 6 28 -1 13 -3 28 -4 35 0 7 -9 10
-18 7 -10 -3 -7 2 7 11 14 8 18 14 10 13 -8 -2 -15 2 -15 7 0 5 7 9 15 7 9 -2
11 0 5 5 -15 12 -18 43 -4 43 7 0 9 3 6 6 -4 4 -12 2 -20 -4 -10 -8 -16 -6
-26 10 -7 11 -8 17 -3 14 11 -6 24 32 16 46 -3 4 -11 8 -17 8 -7 0 -6 -4 3
-10 13 -9 13 -11 0 -20 -8 -5 -19 -10 -25 -10 -5 0 -3 5 5 10 13 9 13 11 0 20
-10 6 -11 10 -2 10 6 0 12 5 12 11 0 5 -4 8 -9 5 -5 -4 -7 4 -4 16 3 17 2 19
-5 10 -7 -11 -10 -11 -15 3 -4 9 -3 13 3 10 6 -3 10 -1 10 5 0 6 5 8 12 4 7
-4 8 -3 4 5 -4 6 -12 9 -17 6 -16 -10 -22 24 -8 42 12 15 12 16 -3 10 -19 -7
-25 8 -8 18 8 5 8 11 1 19 -6 7 -7 16 -3 20 4 4 3 7 -3 6 -23 -5 -45 1 -45 11
0 6 7 8 18 4 14 -5 15 -4 4 7 -11 11 -16 10 -27 -5 -12 -17 -13 -16 -11 7 0
13 4 22 9 19 4 -2 7 1 7 6 0 6 -7 11 -15 11 -18 0 -19 12 -2 29 10 10 9 12 -3
9 -8 -2 -14 3 -15 10 0 14 -13 17 -23 6 -4 -4 0 -4 8 1 8 5 12 5 8 0 -4 -4 -4
-13 2 -19 5 -7 5 -17 -2 -26 -8 -13 -9 -12 -5 2 3 9 -3 24 -13 33 -11 10 -17
22 -14 26 3 5 0 9 -5 9 -6 0 -11 5 -11 11 0 5 5 7 10 4 15 -9 12 2 -6 20 -13
13 -19 13 -32 3 -13 -11 -14 -10 -4 9 16 29 15 38 -2 24 -11 -9 -16 -9 -21 0
-6 8 -10 7 -17 -2 -8 -11 -9 -10 -4 3 3 10 -2 22 -12 27 -9 6 -13 11 -8 11 6
0 19 -9 31 -20 17 -16 22 -17 22 -5 0 8 -2 13 -5 11 -4 -5 -15 3 -47 32 -12
10 -15 11 -15 1 0 -7 -3 -9 -6 -6 -4 4 -1 14 7 24 9 11 10 14 2 9 -9 -5 -13
-1 -13 11 0 12 -3 14 -8 6 -9 -15 -44 -11 -50 5 -2 7 -7 10 -11 8 -4 -3 -8 5
-8 16 -3 34 -20 45 -46 29 -18 -11 -20 -11 -9 0 16 17 15 26 -2 32 -9 4 -14 1
-12 -6 1 -7 1 -9 -1 -4 -3 4 -8 5 -13 2 -4 -3 -6 3 -3 14 3 10 0 22 -7 26 -7
4 -10 1 -8 -7 4 -18 -6 -20 -34 -7 -20 8 -20 9 -3 6 16 -3 21 1 22 17 1 12 -1
15 -4 9 -3 -7 -9 -13 -14 -13 -6 0 -7 5 -3 11 4 7 -2 6 -17 -2 -21 -11 -23
-11 -11 3 10 13 10 18 1 24 -8 5 -9 3 -4 -6 5 -8 3 -11 -6 -8 -8 3 -13 11 -11
17 1 6 -3 11 -9 11 -6 0 -9 -7 -5 -15 7 -19 5 -19 -30 0 -22 11 -31 12 -43 2
-12 -10 -13 -9 -3 10 17 32 15 36 -9 12 -20 -20 -21 -20 -38 -2 -12 12 -14 20
-7 25 6 4 7 10 3 14 -3 4 -14 1 -23 -7 -15 -12 -16 -11 -9 11 7 23 6 24 -7 6
-14 -18 -15 -18 -32 5 l-18 24 7 -25 c5 -21 4 -23 -7 -10 -7 8 -22 22 -32 30
-19 15 -19 14 -1 -13 15 -24 16 -27 1 -21 -9 3 -16 10 -16 14 0 4 -7 11 -16
14 -13 5 -14 4 -6 -7 9 -10 5 -12 -21 -9 -18 2 -48 5 -68 6 -21 0 -35 5 -32
12 2 6 -9 10 -26 10 -17 0 -28 -3 -25 -7 2 -5 11 -6 19 -2 8 3 15 1 15 -5 0
-6 -8 -9 -17 -7 -10 2 -24 4 -31 4 -7 1 -10 6 -7 11 7 11 6 11 -13 3z m169
-133 c10 0 19 -5 19 -12 0 -6 3 -8 7 -4 5 4 0 14 -11 21 -18 13 -18 14 2 12
11 0 18 -5 16 -9 -3 -4 0 -8 5 -8 6 0 11 5 11 12 0 6 3 8 6 5 4 -4 1 -13 -5
-21 -17 -20 -4 -41 15 -25 13 11 18 6 15 -14 -1 -5 3 -6 8 -3 5 4 12 2 15 -3
12 -19 41 -4 39 20 -1 23 -1 22 10 -3 6 -15 17 -30 25 -33 13 -5 13 -3 1 11
-13 16 -12 16 9 5 17 -9 22 -9 22 0 0 7 3 9 6 6 4 -4 1 -13 -5 -21 -9 -11 -9
-16 0 -22 8 -5 9 -3 4 6 -6 10 -4 12 9 7 9 -4 15 -3 12 2 -3 5 0 11 8 14 8 3
13 -1 12 -11 -1 -12 6 -16 22 -14 21 3 23 0 17 -20 -5 -20 -5 -21 5 -5 9 14
15 16 26 6 12 -9 12 -15 2 -27 -9 -10 -9 -13 -1 -9 6 4 13 4 16 0 2 -5 2 -2 1
5 -2 6 1 12 6 12 6 0 10 -5 10 -11 0 -6 7 -8 16 -5 8 3 12 2 9 -4 -4 -6 4 -9
17 -7 17 1 22 -3 20 -15 -2 -11 3 -18 12 -18 9 0 14 6 12 13 -1 6 -1 9 1 5 3
-5 12 -8 21 -9 12 0 10 -3 -5 -9 -24 -10 -30 -25 -13 -35 6 -3 7 2 4 12 -4 13
-1 12 12 -4 9 -13 21 -23 26 -23 6 0 4 8 -3 18 -12 15 -12 16 2 5 9 -7 18 -11
21 -8 2 3 5 -1 6 -7 2 -28 8 -47 20 -60 6 -8 8 -19 4 -23 -4 -5 -1 -5 6 -1 6
4 12 15 13 24 0 14 2 13 8 -3 5 -11 4 -23 -1 -26 -5 -3 -2 -9 7 -12 9 -4 14
-3 11 2 -3 5 1 11 9 14 9 4 12 1 8 -9 -3 -8 -2 -14 3 -13 23 4 25 -3 10 -26
-15 -23 -13 -30 8 -26 5 1 5 -6 2 -16 -6 -14 -5 -15 5 -6 9 10 10 15 0 27 -9
11 -9 16 1 22 7 4 10 4 6 -1 -10 -11 10 -35 25 -31 7 1 9 1 4 -1 -4 -3 -4 -10
-1 -15 4 -6 2 -8 -4 -4 -6 3 -13 3 -16 -2 -3 -5 1 -9 9 -10 8 -1 21 -3 28 -4
7 -1 13 -9 13 -19 0 -10 -4 -15 -9 -12 -5 3 -4 -3 1 -13 6 -11 11 -23 12 -29
1 -5 6 -9 10 -8 8 2 23 -30 25 -51 0 -5 7 -11 15 -13 12 -4 12 -3 1 5 -9 7
-10 12 -2 16 6 4 12 4 12 -1 6 -36 4 -70 -5 -83 -7 -10 -4 -10 10 2 19 16 20
16 20 -2 0 -10 -4 -16 -8 -14 -4 3 -8 0 -8 -5 0 -6 6 -11 13 -12 6 0 3 -4 -8
-9 l-20 -9 20 -1 c11 -2 24 -2 28 -1 5 1 4 -6 -2 -16 -6 -12 -6 -24 1 -38 10
-18 9 -18 -4 -7 -11 9 -18 10 -23 2 -4 -6 -3 -10 2 -9 19 3 23 -2 13 -21 -9
-17 -8 -19 7 -13 17 7 17 6 1 -19 -15 -23 -15 -27 -2 -32 8 -3 12 -10 9 -16
-3 -5 0 -10 7 -10 10 0 9 -3 -2 -11 -13 -9 -12 -10 3 -5 9 3 25 9 35 12 11 4
8 -1 -8 -14 -13 -11 -27 -19 -30 -17 -3 2 -6 -9 -5 -25 0 -15 3 -26 7 -23 5 2
8 -1 8 -6 0 -6 5 -10 12 -8 17 3 17 -23 1 -50 -11 -19 -11 -23 3 -31 15 -8 15
-10 0 -15 -9 -4 -15 -2 -13 5 1 6 -5 13 -13 15 -13 4 -13 3 0 -6 8 -6 11 -11
6 -11 -5 0 -1 -9 9 -20 10 -11 16 -21 14 -23 -2 -1 -12 -8 -21 -15 -13 -11
-16 -11 -14 0 1 7 5 19 9 26 5 7 4 12 -2 12 -10 0 -15 -14 -12 -34 1 -5 -6 -6
-16 -2 -17 6 -17 5 0 -8 19 -14 24 -42 6 -30 -7 4 -10 1 -7 -7 3 -8 11 -13 17
-11 7 1 10 -2 6 -8 -3 -6 -10 -8 -15 -5 -7 5 -19 -25 -27 -70 -2 -14 -1 -16 6
-7 7 11 9 10 14 -3 4 -9 3 -14 -2 -11 -5 3 -15 -2 -22 -11 -8 -9 -9 -14 -3
-10 6 3 11 1 11 -6 0 -7 4 -21 8 -32 5 -16 5 -17 -4 -5 -10 14 -16 7 -12 -13
1 -5 -3 -6 -9 -2 -6 3 -8 10 -5 15 3 4 -2 10 -10 13 -11 5 -12 1 -4 -19 10
-28 5 -44 -14 -44 -7 0 -6 4 3 10 12 7 10 9 -7 7 -21 -1 -22 -2 -5 -21 9 -11
13 -17 7 -14 -5 3 -21 -9 -35 -26 l-25 -30 25 17 c13 9 29 17 34 17 6 0 0 -7
-13 -16 -18 -13 -20 -18 -10 -25 9 -5 2 -7 -18 -5 -21 3 -32 0 -30 -7 1 -7 -4
-11 -11 -9 -8 1 -11 -2 -7 -8 5 -8 14 -5 28 7 l22 18 -18 -22 c-11 -12 -16
-27 -12 -32 9 -16 -1 -13 -18 4 -13 13 -15 10 -13 -18 1 -22 -3 -31 -13 -29
-8 2 -11 -3 -8 -12 4 -9 3 -15 -1 -15 -20 3 -32 -2 -26 -12 4 -8 0 -8 -15 0
-17 10 -21 9 -21 -4 0 -9 4 -13 10 -10 6 4 7 -1 3 -11 -4 -10 -8 -13 -10 -7
-3 7 -12 9 -21 6 -15 -4 -15 -3 -2 6 13 9 13 11 0 11 -13 0 -13 1 0 11 12 8
12 10 1 7 -19 -5 -23 -36 -5 -46 11 -6 10 -10 -6 -20 -16 -10 -20 -10 -18 0 2
7 -2 12 -8 11 -6 -1 -11 4 -11 12 0 8 4 12 8 10 3 -3 9 4 12 15 3 11 0 20 -6
20 -7 0 -6 4 2 9 8 5 16 19 18 31 2 14 -1 19 -9 14 -7 -4 -8 -3 -4 5 6 9 11 9
21 1 11 -9 20 -8 37 4 12 9 18 16 12 16 -5 0 -15 -5 -22 -12 -16 -16 -15 3 2
24 7 10 17 14 22 10 4 -4 2 1 -5 11 -14 17 -27 24 -17 8 3 -5 -1 -14 -8 -20
-10 -9 -16 -9 -21 -1 -4 6 -1 9 6 8 7 -2 13 2 14 7 0 6 4 15 8 22 4 6 1 14 -5
17 -7 3 -4 4 8 1 16 -4 20 0 20 20 0 17 -4 24 -13 21 -7 -3 -13 -1 -13 4 0 9
13 14 31 12 3 -1 6 5 6 12 0 8 -9 12 -21 10 -12 -3 -15 -2 -8 2 6 3 12 10 12
15 0 6 -5 7 -12 3 -7 -4 -8 -3 -4 5 6 9 11 9 24 -1 13 -11 14 -11 7 2 -6 8
-10 24 -11 35 -2 40 -4 46 -13 40 -5 -3 -13 0 -17 6 -4 8 -3 9 4 5 7 -4 12 -2
12 4 0 7 7 9 16 6 13 -5 14 -4 6 7 -6 7 -10 23 -7 35 2 12 0 24 -6 27 -5 4 -9
11 -9 16 0 6 6 7 13 3 8 -5 8 -2 -2 9 -7 9 -20 17 -27 17 -8 0 -11 7 -8 18 5
16 5 16 -9 0 -8 -10 -18 -18 -22 -18 -4 0 -2 6 4 14 9 11 10 20 1 36 -6 11
-15 18 -19 16 -4 -3 -8 1 -8 9 0 8 4 12 8 10 4 -3 10 2 13 10 3 9 -1 18 -8 21
-8 3 -17 13 -20 21 -6 14 -4 14 11 2 17 -12 17 -12 0 7 -15 16 -19 17 -27 4
-5 -8 -10 -10 -10 -5 0 6 5 16 12 23 20 20 -6 39 -28 21 -10 -8 -15 -9 -11 -2
4 7 0 17 -10 23 -16 10 -16 11 3 7 12 -3 21 1 21 8 0 7 -6 11 -14 8 -13 -5
-65 41 -57 50 3 2 -7 3 -21 2 -22 -3 -23 -1 -15 16 9 15 7 19 -5 19 -9 0 -13
-4 -10 -10 3 -5 1 -10 -4 -10 -14 0 -14 17 -1 25 6 3 10 12 10 18 0 7 -4 6
-10 -3 -9 -13 -14 -7 -11 13 0 4 -2 6 -6 6 -21 -3 -33 2 -27 13 5 7 3 8 -6 3
-10 -6 -7 -12 10 -25 18 -14 20 -19 9 -25 -8 -5 -11 -5 -8 -1 6 7 -10 28 -63
84 -19 20 -23 21 -38 7 -15 -14 -19 -14 -31 2 -9 11 -10 14 -2 9 9 -5 11 -2 7
9 -5 11 -10 13 -17 6 -5 -5 -16 -7 -25 -4 -9 4 -13 2 -9 -4 4 -6 -5 -9 -20 -8
-15 0 -28 7 -31 15 -2 9 0 11 5 5 13 -17 33 -16 26 1 -3 8 -8 13 -11 10 -2 -3
-13 -1 -23 5 -14 7 -18 6 -15 -3 1 -7 1 -10 -1 -5 -3 4 -11 7 -19 7 -8 0 -14
5 -14 11 0 5 4 8 8 5 4 -2 14 0 22 6 12 8 12 9 -2 4 -10 -3 -18 0 -18 6 0 6
-10 3 -22 -8 -13 -10 -20 -15 -16 -10 4 5 3 15 -4 23 -8 11 -8 17 2 26 10 10
12 9 7 -5 -4 -10 -2 -18 3 -18 11 0 13 23 3 33 -3 4 -18 0 -32 -9 -14 -9 -21
-11 -14 -4 9 10 8 16 -6 29 -9 9 -11 12 -4 8 6 -5 20 -4 30 2 17 11 17 11 -2
9 -20 -3 -28 18 -14 37 12 17 11 27 -3 37 -9 6 -5 8 12 4 14 -3 19 -3 13 0 -9
4 -10 11 -3 24 6 12 6 21 1 25 -12 7 -24 -12 -16 -25 3 -5 2 -10 -3 -10 -5 0
-12 9 -15 20 -3 11 0 18 7 17 6 -1 10 4 8 11 -1 8 2 11 7 8 5 -4 12 -2 15 3 4
5 2 12 -4 16 -5 3 -10 11 -10 17 0 7 6 6 15 -2 9 -7 15 -8 15 -2 0 5 -7 13
-16 16 -9 4 -14 9 -10 13 3 3 -1 17 -9 30 -17 25 -11 48 9 40 7 -3 19 -1 27 4
12 8 12 10 -1 8 -37 -4 -46 7 -29 36 4 6 5 34 4 63 -1 48 0 52 19 46 17 -4 18
-3 6 5 -8 6 -24 8 -35 5 -19 -6 -20 -6 -1 8 15 12 16 17 6 23 -9 6 -11 4 -5
-5 5 -9 4 -11 -4 -6 -8 5 -7 13 4 29 18 26 19 41 3 31 -9 -5 -9 -3 1 9 7 9 17
15 21 12 11 -7 7 -30 -10 -51 -14 -17 -13 -18 1 -7 9 7 18 11 21 8 3 -3 4 10
3 29 -1 19 2 33 7 30 4 -3 8 1 9 8 0 10 2 10 6 1 2 -7 13 -13 24 -13z m-231
-15 c7 -13 18 -21 24 -18 6 3 8 3 4 -2 -4 -4 -3 -14 4 -22 8 -11 7 -12 -5 -7
-17 6 -61 74 -48 74 4 0 14 -11 21 -25z m355 6 c-3 -2 0 -12 5 -21 12 -23 -11
-21 -38 3 -14 13 -21 14 -30 5 -8 -8 -12 -9 -12 -1 0 6 5 13 11 15 15 5 69 4
64 -1z m-376 -48 c-12 -16 -12 -17 1 -6 12 9 21 6 45 -14 20 -16 23 -21 8 -14
-16 8 -24 8 -29 -1 -4 -7 -4 -10 1 -6 4 4 14 3 22 -4 11 -9 11 -14 -2 -28 -12
-14 -13 -20 -4 -26 8 -5 10 -3 4 7 -8 12 -6 12 8 0 19 -15 22 -31 6 -31 -5 0
-7 4 -4 10 4 6 -1 7 -11 3 -14 -5 -14 -7 -2 -14 9 -5 14 -22 13 -44 -1 -20 3
-35 9 -35 6 0 3 -5 -6 -11 -10 -5 -18 -15 -18 -22 0 -8 4 -6 11 3 9 13 10 12
5 -2 -3 -10 -1 -20 4 -23 6 -4 10 -12 10 -18 0 -9 -2 -9 -8 0 -4 7 -13 9 -21
4 -10 -7 -10 -9 2 -14 9 -3 14 -14 12 -24 -1 -10 3 -24 9 -32 8 -11 8 -13 -1
-7 -8 4 -13 1 -13 -9 0 -10 5 -13 12 -9 7 5 8 3 4 -5 -5 -7 -15 -10 -24 -6
-14 5 -14 4 0 -12 8 -10 14 -26 13 -35 -2 -10 2 -18 8 -18 8 0 8 -3 2 -8 -5
-4 -10 -20 -10 -37 0 -16 5 -34 10 -38 6 -5 0 -5 -13 -2 -20 6 -22 3 -18 -17
3 -20 0 -24 -19 -24 -13 0 -21 4 -19 8 3 5 9 6 14 3 5 -3 11 -1 14 4 8 12 -37
8 -47 -4 -5 -6 -7 -1 -4 11 3 13 -1 21 -10 21 -8 0 -12 -6 -9 -13 3 -9 -1 -11
-12 -7 -15 6 -16 5 -2 -12 14 -17 14 -17 -7 -4 -15 9 -18 16 -11 20 6 4 13 15
14 24 1 9 0 14 -3 11 -9 -9 -32 14 -29 27 1 7 1 9 -1 4 -3 -4 -10 -4 -15 -1
-7 4 -8 2 -4 -4 4 -7 2 -12 -3 -12 -15 0 -14 27 1 32 7 3 5 7 -6 11 -9 4 -15
3 -11 -3 3 -5 -4 -8 -15 -7 -13 1 -16 5 -10 11 13 13 13 26 -1 26 -5 0 -7 -4
-4 -10 3 -5 1 -10 -5 -10 -7 0 -9 8 -5 21 5 14 3 19 -3 15 -7 -4 -9 6 -6 29 3
24 0 35 -8 36 -7 0 -4 4 7 9 13 6 15 9 5 9 -8 1 -23 15 -33 33 -11 20 -13 27
-4 20 8 -7 17 -9 21 -5 4 4 4 0 1 -9 -4 -9 -2 -18 3 -22 17 -10 6 34 -12 47
-17 12 -17 14 1 28 17 13 17 13 3 -6 -8 -11 -10 -17 -6 -13 5 4 16 2 24 -5 13
-10 14 -9 7 3 -14 22 -15 40 -2 40 6 0 2 7 -9 16 -10 8 -14 13 -7 10 6 -4 15
-1 19 5 4 7 3 9 -4 5 -6 -3 -13 -2 -17 4 -3 5 1 10 10 10 9 0 13 5 10 10 -4 6
-11 8 -16 5 -5 -3 -6 1 -3 9 3 9 10 16 16 16 5 0 6 -4 3 -10 -3 -6 1 -7 10 -4
13 5 12 9 -6 25 -12 11 -18 19 -13 19 6 0 16 -6 23 -12 11 -10 12 -10 7 -1
-16 28 -14 51 2 49 9 0 16 4 15 10 -1 6 5 11 13 11 11 0 11 -4 -3 -19 -15 -17
-15 -18 0 -13 9 4 19 15 22 26 4 11 11 16 18 12 8 -5 8 -2 0 9 -14 17 -6 31
11 21 19 -12 35 -12 46 2 8 10 8 15 -1 21 -8 5 -9 3 -4 -6 5 -9 4 -11 -3 -6
-20 12 -13 28 9 21 16 -6 20 -4 14 6 -4 8 0 6 10 -3 16 -15 17 -19 4 -35z
m-312 -39 c-4 -4 3 -20 14 -35 19 -26 18 -34 -3 -30 -5 0 -8 -9 -8 -21 0 -18
2 -20 9 -9 7 10 9 7 8 -12 -1 -15 -3 -27 -4 -27 -1 0 -9 13 -17 29 -11 21 -12
31 -3 40 7 7 8 11 0 11 -15 0 -23 -24 -12 -41 5 -8 9 -21 9 -29 -1 -11 -5 -10
-16 5 -15 19 -15 19 -8 -9 5 -19 2 -31 -7 -37 -11 -7 -11 -9 -1 -9 7 0 15 7
18 15 7 16 30 20 38 6 3 -5 -2 -8 -12 -7 -10 0 -17 -6 -16 -15 1 -9 -4 -16
-10 -15 -6 0 -12 -3 -13 -9 -1 -5 8 -9 20 -8 12 1 16 -1 10 -3 -7 -3 -13 -13
-14 -22 0 -11 -2 -12 -6 -4 -2 6 -9 12 -15 12 -6 0 -5 -6 2 -15 7 -9 19 -14
27 -11 21 8 15 -2 -8 -15 -12 -6 -19 -7 -16 -2 4 5 0 10 -8 10 -12 0 -12 -3
-3 -14 6 -8 20 -12 30 -9 15 3 17 1 9 -8 -6 -7 -7 -17 -3 -22 4 -4 -1 -2 -11
5 -15 12 -17 12 -11 -3 3 -9 12 -16 20 -16 8 0 14 -5 14 -11 0 -6 -6 -9 -13
-6 -8 3 -14 -1 -14 -8 0 -8 5 -13 11 -12 6 1 10 -4 8 -11 -1 -8 2 -11 8 -7 6
3 8 11 5 16 -4 5 -1 17 5 26 11 17 11 17 6 1 -7 -24 3 -50 17 -41 6 3 7 1 3
-6 -4 -6 -13 -8 -19 -4 -7 4 -6 0 2 -10 11 -14 11 -18 -4 -23 -16 -6 -16 -8
-1 -16 9 -5 13 -14 10 -20 -4 -7 -2 -8 5 -4 8 6 9 12 2 20 -8 9 -7 13 3 13 10
0 13 -10 10 -30 -3 -25 -1 -27 12 -17 12 11 13 10 8 -4 -3 -9 -11 -16 -17 -16
-6 0 -7 -3 -4 -6 4 -4 13 -2 21 5 11 9 15 8 20 -4 4 -10 2 -14 -5 -9 -8 4 -8
0 0 -14 6 -12 16 -24 23 -28 6 -4 8 -3 5 3 -4 6 0 13 8 16 22 9 49 -51 32 -71
-11 -13 -9 -14 10 -2 12 8 19 18 16 24 -4 5 -1 6 6 1 9 -5 10 -10 2 -18 -6 -6
-11 -15 -11 -20 0 -5 7 -1 16 7 8 9 20 16 27 16 6 0 2 -7 -9 -16 -10 -8 -14
-13 -7 -10 6 4 15 2 18 -4 5 -8 11 -7 21 1 8 6 14 8 14 3 0 -5 5 -2 11 6 9 13
10 13 6 0 -2 -8 -9 -14 -15 -13 -11 3 -10 -22 2 -34 4 -4 6 -1 4 7 -1 8 3 14
10 12 6 -1 12 6 13 15 0 15 2 15 9 -2 12 -29 12 -37 -2 -29 -9 5 -9 2 1 -9 15
-18 26 -23 16 -7 -3 6 -1 10 5 10 6 0 8 5 5 10 -3 6 -1 10 5 10 6 0 8 -11 6
-24 -2 -14 1 -30 8 -35 9 -8 13 -7 13 4 0 8 -5 11 -10 8 -6 -3 -7 -1 -3 6 10
16 25 5 21 -17 -2 -9 -4 -17 -5 -17 -7 0 -8 -45 -1 -49 4 -3 7 6 5 19 -1 14 2
23 7 19 5 -3 6 -10 3 -16 -4 -6 0 -14 7 -19 11 -7 11 -9 1 -9 -8 0 -10 -5 -6
-12 5 -7 2 -9 -7 -6 -10 4 -15 -1 -15 -13 0 -14 3 -15 13 -7 11 9 12 6 3 -16
-6 -16 -6 -25 0 -21 5 3 7 -4 5 -15 -2 -11 2 -20 8 -20 8 0 8 -3 2 -8 -12 -8
-13 -32 -1 -50 4 -7 5 -16 2 -19 -3 -4 -6 -1 -6 5 0 6 -7 9 -16 5 -15 -5 -15
-7 1 -15 15 -9 15 -11 -2 -31 -10 -11 -12 -17 -5 -13 10 6 13 2 10 -15 -2 -13
-7 -28 -13 -32 -6 -5 -4 -7 6 -4 9 3 16 -1 16 -9 0 -9 -6 -13 -16 -9 -13 5
-14 4 -3 -6 6 -7 12 -17 12 -22 0 -4 -6 -5 -12 -1 -7 4 -10 4 -6 -1 4 -4 2
-15 -5 -24 -11 -14 -10 -14 6 -2 11 9 17 10 17 2 0 -6 -7 -14 -15 -17 -8 -4
-12 -11 -9 -18 3 -6 -2 -2 -11 9 -17 20 -17 20 -11 -1 4 -14 2 -21 -8 -21 -9
0 -13 4 -10 9 3 4 0 8 -6 8 -6 0 -8 5 -4 12 4 7 3 8 -5 4 -6 -4 -9 -12 -6 -17
9 -13 -9 -11 -24 4 -11 10 -13 9 -8 -4 3 -9 0 -16 -9 -16 -7 0 -11 4 -8 9 8
13 -31 9 -45 -5 -9 -7 -11 -7 -8 -1 4 7 0 15 -9 18 -8 3 -12 2 -9 -4 9 -14 -8
-12 -24 2 -11 11 -13 10 -8 -3 3 -10 -1 -16 -9 -16 -8 0 -13 6 -10 13 3 7 -2
10 -15 7 -10 -3 -17 -9 -14 -12 2 -4 -2 -8 -10 -8 -8 0 -12 4 -10 8 3 4 -2 10
-11 13 -8 3 -12 2 -9 -4 9 -14 -8 -12 -24 3 -11 10 -13 9 -8 -4 3 -10 -1 -16
-9 -16 -8 0 -13 6 -10 13 3 8 0 16 -6 20 -7 4 -8 3 -4 -4 4 -7 1 -12 -9 -12
-9 0 -14 -4 -11 -8 3 -5 -1 -9 -9 -9 -8 0 -12 4 -10 8 3 4 -2 10 -11 13 -8 3
-12 2 -9 -4 9 -14 -8 -12 -24 3 -12 10 -13 8 -7 -8 5 -17 3 -16 -16 5 -14 16
-19 19 -15 8 7 -21 -3 -23 -22 -5 -11 10 -13 9 -8 -4 3 -10 -1 -16 -9 -16 -9
0 -13 6 -9 16 4 11 0 10 -16 -5 -12 -10 -19 -14 -16 -8 4 7 0 15 -9 18 -8 3
-12 2 -9 -4 9 -14 -8 -12 -24 2 -12 11 -13 10 -7 -6 7 -20 7 -20 -14 -1 -12
11 -21 15 -20 10 5 -24 -2 -25 -21 -4 -19 23 -20 23 -10 2 10 -19 9 -21 -10
-18 -12 3 -30 12 -40 21 -11 10 -19 14 -19 9 0 -4 -8 -1 -17 6 -15 11 -16 11
-5 -1 21 -24 13 -29 -12 -7 -24 22 -25 37 -3 37 7 0 6 -4 -3 -10 -8 -5 -10
-10 -5 -10 6 0 17 5 25 10 12 7 8 11 -17 16 -18 3 -32 9 -31 13 2 19 -4 29
-20 33 -10 3 -19 12 -19 21 0 9 4 14 9 11 5 -3 5 -10 2 -16 -5 -7 0 -9 14 -6
12 4 20 3 17 -1 -2 -5 3 -17 11 -27 9 -10 13 -13 9 -7 -3 7 -8 22 -10 33 -2
11 -9 28 -15 37 -9 15 -10 14 -5 -7 5 -19 4 -22 -4 -10 -16 23 -13 61 7 76 16
13 16 14 -3 7 -17 -6 -18 -4 -8 8 10 13 10 16 -1 16 -8 0 -13 -8 -11 -19 2
-10 0 -18 -6 -18 -9 0 -8 18 6 73 5 19 3 27 -6 28 -8 0 -5 4 6 9 l20 9 -20 1
c-19 1 -19 2 4 20 13 11 18 20 11 20 -7 0 -10 8 -7 20 3 11 1 18 -4 14 -5 -3
-9 0 -9 6 0 6 6 13 13 16 8 2 13 21 13 44 0 36 -6 45 -28 41 -4 0 -5 6 -1 15
3 9 9 12 12 7 14 -21 53 0 44 24 -4 10 -2 14 4 10 7 -4 10 0 9 10 -2 10 2 22
8 26 7 5 3 7 -10 4 -13 -3 -21 1 -21 9 0 7 3 11 7 9 4 -2 16 3 26 11 17 14 17
15 2 10 -10 -3 -18 -1 -18 3 0 5 5 11 12 13 10 4 17 23 20 56 1 6 5 12 10 12
5 0 6 5 2 11 -4 8 -9 7 -15 -2 -5 -9 -11 -10 -16 -4 -5 6 -6 9 -4 8 11 -7 29
20 24 35 -4 15 -3 15 6 2 6 -9 11 -10 11 -3 0 6 9 9 23 6 17 -4 19 -3 7 6 -13
9 -13 12 -1 23 10 9 12 10 7 1 -5 -9 -2 -11 8 -7 12 5 13 9 3 19 -7 7 -16 10
-22 7 -5 -3 0 6 11 19 12 13 19 31 17 39 -4 13 -3 13 6 0 5 -8 7 -18 4 -23 -3
-6 8 1 25 13 18 13 30 26 27 28 -3 3 -13 -2 -23 -11 -15 -14 -19 -14 -19 -3 0
8 5 14 11 13 5 -1 11 4 12 11 1 6 2 15 3 18 0 4 8 1 16 -6 9 -7 18 -10 22 -6
3 3 1 6 -5 6 -7 0 -12 7 -12 15 0 8 5 15 11 15 5 0 8 -4 5 -8 -3 -5 1 -9 9 -9
13 0 12 4 -2 19 -9 10 -13 21 -10 25 4 3 7 0 7 -7 0 -7 3 -10 7 -7 3 4 13 1
21 -6 13 -10 14 -9 4 9 -9 16 -7 22 9 32 19 12 19 11 9 -10 -10 -21 -10 -22 4
-5 8 11 12 26 8 35 -5 15 -4 16 13 2 17 -14 18 -14 5 10 -13 24 -12 24 5 10
17 -14 17 -13 11 10 -6 22 -5 23 4 7 11 -18 13 -18 36 4 13 12 24 27 24 33 0
6 -4 5 -9 -2 -6 -10 -10 -10 -19 1 -10 12 -8 14 13 11 14 -1 34 -8 43 -15 9
-8 6 0 -8 16 -14 17 -19 25 -12 19 14 -12 55 -7 47 5 -2 4 2 8 10 8 8 0 12 -4
9 -9 -3 -4 2 -8 10 -8 18 0 21 16 6 25 -10 6 -5 25 7 25 4 0 3 -3 0 -6z m479
-48 c0 -17 -4 -22 -15 -18 -9 3 -11 7 -4 9 7 3 9 11 6 19 -3 8 -1 14 4 14 5 0
9 -11 9 -24z m-596 -41 c0 -2 -6 -8 -13 -14 -10 -8 -14 -7 -14 2 0 8 6 14 14
14 7 0 13 -1 13 -2z m597 -15 c1 -11 -2 -20 -7 -20 -6 0 -7 17 -1 38 3 8 7 -1
8 -18z m-358 -63 c-2 -2 -11 -8 -20 -15 -12 -9 -16 -9 -16 1 0 7 9 14 20 14
11 1 18 1 16 0z m991 -7 c0 -5 -2 -10 -4 -10 -3 0 -8 5 -11 10 -3 6 -1 10 4
10 6 0 11 -4 11 -10z m165 0 c3 -5 1 -10 -4 -10 -6 0 -11 5 -11 10 0 6 2 10 4
10 3 0 8 -4 11 -10z m-1654 -17 c13 -16 12 -17 -3 -4 -10 7 -18 15 -18 17 0 8
8 3 21 -13z m460 -60 c13 -16 12 -17 -3 -4 -10 7 -18 15 -18 17 0 8 8 3 21
-13z m393 -6 c-2 -11 2 -27 8 -34 8 -11 7 -12 -6 -7 -9 4 -16 14 -14 23 1 9
-1 21 -4 27 -4 6 -1 11 7 11 8 0 12 -8 9 -20z m-359 -65 c-3 -3 -11 0 -18 7
-9 10 -8 11 6 5 10 -3 15 -9 12 -12z m1295 -47 c9 -10 9 -15 1 -15 -6 0 -11 5
-11 11 0 8 -5 7 -15 -1 -13 -11 -14 -10 -9 4 8 20 18 20 34 1z m-120 -20 c0
-2 -6 -5 -13 -8 -8 -3 -14 1 -14 8 0 7 6 11 14 8 7 -3 13 -6 13 -8z m-1064
-90 c9 -8 11 -15 6 -15 -5 0 -15 7 -22 15 -7 8 -9 15 -6 15 4 0 14 -7 22 -15z
m-659 -8 c0 -8 -6 -14 -14 -14 -9 0 -10 4 -2 14 6 7 12 13 14 13 1 0 2 -6 2
-13z m-123 -24 c3 -13 -2 -19 -14 -19 -18 0 -20 11 -6 34 10 16 15 12 20 -15z
m657 -16 c-10 -9 -11 -8 -5 6 3 10 9 15 12 12 3 -3 0 -11 -7 -18z m-674 -39
c-3 -8 -6 -5 -6 6 -1 11 2 17 5 13 3 -3 4 -12 1 -19z m87 6 c3 -8 2 -12 -4 -9
-6 3 -10 10 -10 16 0 14 7 11 14 -7z m26 -39 c-6 -8 -9 -19 -6 -24 13 -20 -12
-20 -30 0 -10 11 -14 20 -9 19 21 -5 36 0 30 10 -3 6 1 10 11 10 13 0 14 -3 4
-15z m1224 -42 c3 -7 0 -15 -6 -19 -6 -4 -8 -3 -5 3 3 5 -3 16 -14 23 -10 8
-19 18 -19 22 0 11 39 -14 44 -29z m616 -33 c0 -5 8 -10 18 -11 10 0 12 -3 4
-6 -6 -2 -9 -10 -6 -15 4 -7 2 -8 -4 -4 -7 4 -10 -1 -9 -14 1 -20 17 -29 17
-9 0 5 5 7 11 4 6 -5 4 -12 -8 -20 -15 -11 -20 -10 -31 6 -11 16 -11 23 -2 34
10 12 10 18 0 30 -9 10 -9 15 -1 15 6 0 11 -4 11 -10z m-1875 -32 c-1 -18 -8
-33 -16 -36 -11 -3 -11 -1 1 7 8 6 10 11 4 11 -20 0 -9 45 12 50 0 0 0 -14 -1
-32z m995 12 c0 -5 -5 -10 -11 -10 -5 0 -7 5 -4 10 3 6 8 10 11 10 2 0 4 -4 4
-10z m69 -8 c9 -9 17 -10 26 -2 13 11 45 4 45 -10 0 -4 13 -13 30 -20 16 -7
28 -17 27 -23 -3 -17 26 -15 40 3 10 13 11 11 6 -7 -3 -13 -1 -23 5 -23 5 0
12 -10 16 -22 4 -18 8 -20 18 -10 6 6 17 12 22 12 6 0 5 -5 -2 -12 -7 -7 -12
-16 -12 -21 0 -5 7 -1 16 7 8 9 21 16 27 15 9 0 8 -2 0 -6 -7 -2 -13 -11 -13
-19 0 -9 5 -12 10 -9 6 3 10 2 10 -4 0 -5 -6 -12 -12 -15 -7 -3 3 -3 22 0 33
5 34 4 15 -10 -20 -15 -20 -15 2 -31 13 -9 20 -23 18 -35 -2 -11 -1 -19 3 -19
4 1 18 1 32 -1 23 -1 23 -2 5 -10 -17 -7 -17 -9 -2 -9 20 -1 21 -5 7 -31 -7
-13 -7 -21 0 -25 6 -4 8 -16 5 -28 -4 -15 -3 -18 3 -9 8 11 10 11 15 -1 3 -8
0 -20 -6 -27 -9 -10 -9 -11 1 -6 6 4 12 2 12 -3 0 -6 -5 -11 -12 -11 -6 0 -3
-7 8 -16 10 -8 13 -12 5 -8 -10 5 -13 3 -8 -9 4 -11 2 -14 -8 -10 -8 3 -12 9
-9 14 3 5 0 9 -5 9 -6 0 -11 -7 -11 -17 0 -14 -3 -14 -22 3 -14 12 -18 13 -10
3 17 -22 2 -33 -15 -11 -13 15 -14 15 -9 0 7 -22 -33 -15 -53 9 -12 17 -13 16
-8 -6 l6 -23 -25 23 c-21 20 -29 19 -25 -3 2 -12 -14 -9 -28 5 -12 10 -13 9
-7 -7 7 -20 7 -20 -14 -1 -12 11 -21 15 -20 10 5 -25 -1 -28 -16 -7 -12 18
-19 20 -29 12 -8 -7 -20 -8 -26 -4 -7 4 -9 3 -6 -3 4 -6 0 -14 -9 -17 -8 -3
-13 -2 -10 2 3 4 -4 13 -15 20 -16 10 -20 10 -25 -3 -4 -11 -11 -12 -24 -5 -9
5 -21 6 -25 2 -5 -4 -5 -1 0 7 6 10 2 12 -16 6 l-24 -7 23 17 c16 12 20 21 14
27 -6 6 -8 18 -5 27 4 13 3 14 -5 1 -7 -9 -7 -18 -1 -26 6 -8 5 -14 -5 -17
-19 -8 -32 11 -17 26 7 7 7 15 -2 26 -9 12 -9 13 0 7 15 -9 15 42 0 62 -5 6
-6 12 -1 12 5 0 2 5 -6 11 -12 8 -10 9 7 4 19 -5 22 -3 16 11 -4 10 -2 15 3
11 6 -3 11 3 11 14 1 10 -3 19 -8 19 -6 0 -7 -4 -4 -10 3 -6 -1 -7 -10 -3 -12
4 -13 8 -5 13 8 5 9 13 4 21 -12 20 -14 38 -3 45 5 3 6 11 2 17 -12 19 -12 36
0 44 7 4 4 9 -8 13 -18 6 -18 7 1 12 15 4 20 0 22 -16 0 -11 -4 -27 -11 -35
-9 -11 -9 -13 0 -8 6 4 13 1 16 -5 3 -7 4 8 3 35 -2 28 2 47 8 48 6 0 5 3 -2
6 -6 2 -9 10 -5 16 3 7 2 8 -3 4 -5 -5 -9 -14 -9 -19 0 -6 -6 -13 -12 -15 -15
-5 -17 13 -3 22 6 4 8 11 4 16 -3 5 -2 9 3 8 26 -4 45 2 40 15 -7 17 33 16 52
-2z m121 -28 c0 -2 -9 0 -20 6 -11 6 -20 13 -20 16 0 2 9 0 20 -6 11 -6 20
-13 20 -16z m818 -9 c-3 -3 -9 2 -12 12 -6 14 -5 15 5 6 7 -7 10 -15 7 -18z
m-2014 -77 c-3 -4 -11 -8 -17 -7 -9 0 -9 2 0 5 7 3 9 13 6 22 -4 14 -3 14 5 2
6 -8 8 -18 6 -22z m1300 25 c-5 -5 -12 -12 -16 -18 -4 -6 -8 -2 -8 8 0 9 7 17
17 17 9 0 12 -3 7 -7z m611 -32 c1 -10 -4 -18 -11 -18 -7 0 -11 4 -8 9 3 4 0
8 -7 8 -8 0 -8 4 1 15 15 18 23 13 25 -14z m-405 -21 c0 -5 -2 -10 -4 -10 -3
0 -8 5 -11 10 -3 6 -1 10 4 10 6 0 11 -4 11 -10z m-115 -50 c-2 -3 5 -13 16
-20 20 -15 27 -44 8 -38 -6 2 -9 6 -7 10 2 3 -7 17 -20 31 -16 17 -18 24 -8
24 8 0 13 -3 11 -7z m-405 -54 c0 -3 -4 -8 -10 -11 -5 -3 -10 -1 -10 4 0 6 5
11 10 11 6 0 10 -2 10 -4z m475 -74 c-2 -10 1 -25 6 -33 7 -12 9 -12 9 0 0 8
2 12 5 9 3 -3 3 -13 -1 -22 -6 -15 -9 -13 -24 11 -12 19 -14 32 -7 41 13 17
16 15 12 -6z m550 8 c-3 -5 -11 -10 -16 -10 -6 0 -7 5 -4 10 3 6 11 10 16 10
6 0 7 -4 4 -10z m-1125 -20 c0 -5 -5 -10 -11 -10 -5 0 -7 5 -4 10 3 6 8 10 11
10 2 0 4 -4 4 -10z m712 -12 c-15 -15 -16 -29 -1 -25 6 1 13 -6 14 -16 3 -15
1 -16 -11 -6 -19 15 -41 54 -26 45 6 -3 13 -2 17 4 3 5 9 10 13 10 3 0 1 -5
-6 -12z m-96 -47 c0 -11 -4 -17 -8 -15 -4 3 -8 -2 -8 -10 0 -9 -4 -16 -8 -16
-4 0 -8 9 -8 19 0 11 3 18 7 15 4 -2 9 3 13 11 7 20 12 19 12 -4z m357 -21
c-3 -11 -9 -20 -15 -20 -5 0 -4 9 2 20 6 11 12 20 14 20 2 0 2 -9 -1 -20z
m-1895 -45 c-3 -3 -9 2 -12 12 -6 14 -5 15 5 6 7 -7 10 -15 7 -18z m146 -11
c3 -8 2 -12 -4 -9 -6 3 -10 10 -10 16 0 14 7 11 14 -7z m971 6 c3 -5 1 -10 -4
-10 -6 0 -11 5 -11 10 0 6 2 10 4 10 3 0 8 -4 11 -10z m88 -3 c3 -8 -1 -14 -9
-14 -15 0 -18 9 -7 20 9 9 10 9 16 -6z m444 -26 c0 -11 -5 -18 -9 -15 -4 3 -5
11 -1 19 7 21 12 19 10 -4z m-1390 -80 c7 7 12 5 17 -6 4 -10 2 -14 -6 -9 -6
4 -8 3 -5 -3 3 -5 16 -9 29 -8 13 1 29 -3 37 -9 10 -7 9 -2 -3 16 -15 23 -15
26 -2 24 9 -1 22 -8 29 -16 10 -10 9 -11 -2 -5 -9 5 -12 4 -8 -2 10 -16 52 -8
51 9 -1 16 20 18 33 3 5 -4 1 -5 -7 0 -9 5 -12 5 -7 -1 5 -5 13 -10 18 -10 5
-1 10 -3 12 -4 6 -7 46 -6 41 1 -2 4 -11 6 -18 3 -7 -3 -16 2 -20 12 -6 15 -4
15 11 3 15 -12 16 -12 10 6 -7 19 -6 19 7 3 15 -21 42 -23 50 -5 3 6 3 2 0
-10 -3 -13 -1 -23 5 -23 6 0 11 6 11 13 0 8 11 12 28 11 15 -1 34 2 43 7 10 5
21 3 28 -4 9 -9 14 -8 21 3 7 11 10 11 10 2 0 -7 4 -10 10 -7 14 9 54 16 46 8
-4 -4 -14 -8 -24 -10 -36 -8 -42 -9 -48 -16 -4 -3 4 -4 17 -1 13 3 37 7 54 9
16 3 31 9 33 15 3 8 8 7 17 0 8 -7 34 -9 62 -6 35 3 43 2 30 -5 -9 -6 -22 -7
-27 -4 -6 3 -10 1 -10 -6 0 -8 10 -9 32 -5 31 6 31 6 13 -10 -11 -8 -15 -13
-10 -10 6 2 17 1 25 -5 10 -6 11 -9 3 -9 -7 0 -13 -5 -13 -11 0 -6 7 -8 17 -5
10 4 14 4 11 0 -4 -4 -3 -16 3 -27 8 -14 8 -18 0 -13 -7 5 -11 -2 -11 -18 0
-14 -5 -26 -12 -26 -6 0 -4 -6 7 -13 14 -11 15 -16 5 -22 -9 -6 -11 -4 -5 5 5
9 4 11 -4 6 -8 -5 -5 -16 10 -38 l22 -30 -24 6 c-13 3 -18 3 -11 0 10 -5 10
-9 0 -22 -10 -12 -10 -14 0 -8 12 7 15 0 15 -36 0 -10 4 -18 10 -18 6 0 2 -7
-9 -16 -10 -8 -13 -13 -7 -9 13 6 12 0 -3 -40 -12 -32 -13 -45 -3 -40 5 4 6
-1 3 -9 -3 -9 -9 -14 -12 -13 -4 1 -8 -2 -9 -8 -1 -5 8 -9 20 -8 16 1 17 0 4
-3 -15 -5 -16 -8 -5 -22 11 -15 11 -15 -3 -4 -19 14 -52 6 -43 -12 4 -6 -5 1
-20 17 -30 31 -32 31 -42 15 -4 -6 -3 -8 4 -4 6 3 14 1 18 -5 4 -8 3 -9 -4 -5
-7 4 -12 1 -12 -6 0 -10 -2 -10 -9 0 -4 8 -11 13 -15 13 -20 -3 -26 0 -21 9 9
14 -8 12 -24 -2 -11 -11 -14 -10 -18 0 -3 6 -10 9 -15 6 -7 -5 -8 -2 -3 6 5 8
3 11 -6 8 -8 -3 -20 2 -27 11 -12 15 -13 14 -9 -1 7 -20 -17 -18 -43 5 -20 17
-28 43 -10 32 6 -3 7 1 3 10 -3 9 -9 13 -12 8 -12 -18 -42 -23 -47 -8 -4 8
-10 15 -16 15 -5 0 -6 -5 -2 -12 4 -7 3 -8 -5 -4 -6 4 -10 10 -8 14 2 4 -5 16
-16 26 -17 16 -19 16 -14 3 3 -9 1 -19 -5 -23 -7 -4 -8 -3 -4 4 4 7 2 12 -4
12 -6 0 -8 5 -5 10 3 6 0 10 -7 10 -10 0 -9 3 2 11 12 9 12 10 -3 5 -11 -3
-24 -3 -30 1 -7 4 -16 8 -22 8 -5 0 -9 8 -7 18 2 11 -2 15 -12 11 -8 -3 -17 0
-22 7 -4 8 -3 10 4 5 7 -4 12 -2 12 3 0 6 -7 11 -15 11 -12 0 -14 4 -5 19 7
14 7 22 -2 27 -6 4 -8 3 -5 -2 8 -14 -9 -38 -22 -30 -6 4 -11 13 -11 19 0 7 4
6 11 -3 9 -13 10 -13 6 0 -2 8 -15 15 -29 15 -14 -1 -25 5 -25 12 0 9 8 11 21
8 19 -5 19 -5 3 5 -10 7 -25 9 -33 6 -8 -3 -13 -2 -9 3 3 5 2 11 -2 14 -5 2
-3 2 4 1 7 -2 10 3 6 11 -3 8 -9 12 -14 9 -5 -3 -9 -1 -9 5 0 5 3 11 8 14 4 2
1 2 -5 1 -15 -4 -35 30 -25 41 4 5 1 5 -6 1 -11 -6 -10 -12 1 -30 13 -19 13
-22 -2 -22 -14 0 -16 8 -14 38 2 22 -2 38 -8 38 -5 0 -7 -5 -3 -12 5 -7 3 -8
-5 -3 -9 5 -10 10 -2 18 7 7 7 16 0 30 -8 14 -8 18 0 13 6 -4 14 -1 17 8 3 9
12 12 22 9 12 -5 14 -2 9 13 -7 18 -6 18 6 2 10 -12 17 -14 24 -7z m878 0 c-3
-6 5 -15 17 -22 20 -11 22 -11 10 3 -10 13 -10 18 -1 24 8 4 9 3 5 -4 -4 -7
-2 -12 3 -12 6 0 11 6 11 13 0 8 4 7 10 -3 7 -11 10 -11 10 -2 0 7 5 10 10 7
17 -11 11 -24 -10 -20 -11 2 -20 0 -20 -6 0 -5 12 -7 26 -5 20 4 24 2 20 -10
-3 -9 -2 -12 5 -9 5 4 7 16 3 27 -5 18 -4 19 17 8 19 -11 21 -10 16 3 -7 19
18 16 63 -7 17 -8 32 -10 36 -5 3 5 14 9 25 9 11 0 18 4 15 8 -3 5 2 9 10 9 8
0 13 -6 10 -13 -2 -6 2 -20 10 -31 14 -17 14 -16 4 5 -9 18 -8 22 5 22 10 0
13 -5 9 -12 -5 -8 0 -7 11 2 17 14 18 13 12 -2 -4 -12 1 -25 15 -38 12 -11 18
-20 14 -20 -5 0 -3 -6 3 -14 8 -10 9 -16 1 -21 -6 -3 -7 -11 -4 -17 4 -6 -1
-6 -14 1 -17 9 -19 8 -15 -9 3 -11 10 -17 17 -13 7 4 6 1 -1 -9 -7 -8 -9 -19
-5 -23 4 -5 1 -5 -6 -1 -7 4 -10 11 -8 15 3 4 -2 8 -10 8 -10 0 -11 -4 -5 -10
7 -7 7 -15 -2 -26 -9 -12 -9 -13 1 -7 7 4 12 1 12 -9 0 -9 -4 -13 -10 -10 -5
3 -10 2 -10 -4 0 -5 4 -11 9 -13 5 -1 -2 -12 -17 -22 -14 -11 -22 -13 -17 -5
12 18 14 49 3 43 -5 -3 -7 -13 -6 -22 2 -10 -3 -17 -13 -16 -9 1 -16 -5 -16
-12 0 -7 4 -11 8 -8 9 5 3 -35 -6 -44 -11 -11 -35 -10 -35 1 0 5 -3 7 -6 4 -4
-4 -1 -13 6 -22 7 -9 10 -18 6 -22 -3 -3 -6 0 -6 8 0 8 -6 5 -15 -8 -10 -14
-21 -20 -32 -16 -12 5 -14 3 -8 -7 6 -10 4 -12 -7 -8 -8 4 -21 2 -29 -4 -11
-8 -11 -9 3 -4 26 8 30 -8 6 -23 -11 -7 -17 -8 -14 -3 3 6 -1 12 -9 15 -9 4
-12 1 -9 -8 9 -24 -5 -36 -27 -25 -14 8 -19 8 -17 -2 2 -7 -7 -13 -18 -14 -12
0 -37 -12 -55 -25 -18 -12 -29 -18 -25 -11 4 7 1 12 -8 12 -9 0 -16 4 -16 8 0
4 -14 16 -31 26 l-31 18 12 -21 c6 -12 15 -19 19 -16 10 5 24 -25 16 -33 -3
-3 -5 0 -5 6 0 7 -7 12 -16 12 -9 0 -12 -5 -8 -12 4 -7 3 -8 -5 -4 -6 4 -9 12
-5 17 3 5 -1 21 -10 34 -10 15 -12 26 -6 30 6 4 8 10 5 15 -3 5 0 12 6 16 7 4
9 3 6 -3 -3 -5 0 -10 8 -10 13 0 13 2 1 16 -10 11 -12 21 -5 33 6 10 6 19 0
22 -12 8 -24 -11 -16 -24 3 -5 2 -10 -3 -10 -5 0 -12 9 -15 20 -3 11 0 18 7
17 6 -1 10 4 8 11 -1 8 2 11 7 8 5 -4 12 -2 15 3 4 5 2 12 -4 16 -5 3 -10 11
-10 17 0 7 6 6 15 -2 9 -7 15 -8 15 -2 0 5 -7 13 -16 16 -9 4 -14 9 -10 13 3
3 -1 17 -10 31 -16 25 -13 39 5 27 6 -3 9 -10 6 -15 -3 -5 -2 -11 3 -14 4 -2
9 4 9 15 1 10 -4 19 -10 19 -7 0 -6 4 3 11 12 8 9 9 -10 4 -24 -6 -24 -5 -6 9
11 9 15 16 9 16 -6 0 -14 7 -17 16 -5 14 -4 15 8 5 17 -14 22 -7 24 33 2 32
29 69 44 60 4 -3 7 -1 6 5 -2 6 8 17 22 25 32 18 32 18 25 7z m228 -8 c-3 -7
-6 -13 -8 -13 -2 0 -5 6 -8 13 -3 8 1 14 8 14 7 0 11 -6 8 -14z m-293 -12
c-17 -33 -57 -50 -57 -25 0 10 4 11 12 4 9 -7 16 -6 25 5 7 8 9 15 4 15 -5 0
-2 5 6 10 21 14 22 13 10 -9z m440 -23 c0 -4 -4 -8 -9 -8 -6 0 -12 4 -15 8 -3
5 1 9 9 9 8 0 15 -4 15 -9z m25 -18 c3 -5 1 -10 -4 -10 -6 0 -11 5 -11 10 0 6
2 10 4 10 3 0 8 -4 11 -10z m-508 -41 c0 -30 -1 -30 -13 -8 -12 23 -10 39 5
39 4 0 8 -14 8 -31z m870 -35 c-3 -3 -12 -4 -19 -1 -8 3 -5 6 6 6 11 1 17 -2
13 -5z m-883 -127 c-2 -11 2 -27 8 -34 8 -11 7 -12 -6 -7 -9 4 -16 14 -14 23
1 9 -1 21 -4 27 -4 6 -1 11 7 11 8 0 12 -8 9 -20z m-674 -17 c0 -5 -2 -10 -4
-10 -3 0 -8 5 -11 10 -3 6 -1 10 4 10 6 0 11 -4 11 -10z m1430 -10 c-24 -15
-36 -11 -14 4 10 8 21 12 24 10 2 -3 -2 -9 -10 -14z m-140 -4 c0 -2 -7 -7 -16
-10 -8 -3 -12 -2 -9 4 6 10 25 14 25 6z m120 -20 c0 -2 -9 -6 -20 -9 -11 -3
-18 -1 -14 4 5 9 34 13 34 5z m-61 -57 c-22 -13 -31 -11 -17 5 7 8 17 12 22 9
4 -3 2 -9 -5 -14z m-1408 -12 c-10 -9 -11 -8 -5 6 3 10 9 15 12 12 3 -3 0 -11
-7 -18z m634 -26 c-3 -6 -11 -11 -16 -11 -5 0 -4 6 3 14 14 16 24 13 13 -3z
m-341 -29 c3 -5 -1 -9 -9 -9 -8 0 -15 4 -15 9 0 4 4 8 9 8 6 0 12 -4 15 -8z
m171 -142 c-3 -5 -12 -10 -18 -10 -7 0 -6 4 3 10 19 12 23 12 15 0z m575 0 c0
-5 -2 -10 -4 -10 -3 0 -8 5 -11 10 -3 6 -1 10 4 10 6 0 11 -4 11 -10z m-520
-41 c0 -5 5 -9 11 -9 5 0 7 5 3 12 -4 7 -3 8 5 4 18 -11 3 -26 -22 -22 -12 3
-25 5 -29 5 -17 2 -7 17 12 18 11 1 20 -2 20 -8z"/>
<path d="M1383 2235 c0 -8 4 -12 9 -9 5 3 6 10 3 15 -9 13 -12 11 -12 -6z"/>
<path d="M1350 2170 c0 -5 5 -10 11 -10 5 0 7 5 4 10 -3 6 -8 10 -11 10 -2 0
-4 -4 -4 -10z"/>
<path d="M1353 2095 c0 -8 4 -12 9 -9 5 3 6 10 3 15 -9 13 -12 11 -12 -6z"/>
<path d="M1350 2059 c0 -5 5 -7 10 -4 6 3 10 8 10 11 0 2 -4 4 -10 4 -5 0 -10
-5 -10 -11z"/>
<path d="M1337 2009 c7 -7 15 -10 18 -7 3 3 -2 9 -12 12 -14 6 -15 5 -6 -5z"/>
<path d="M1321 1964 c-1 -6 5 -17 12 -23 10 -8 14 -7 14 4 0 8 -4 12 -8 9 -4
-2 -10 2 -12 8 -4 8 -6 9 -6 2z"/>
<path d="M2010 1910 c-9 -6 -10 -10 -3 -10 6 0 15 5 18 10 8 12 4 12 -15 0z"/>
<path d="M1351 1752 c-7 -13 -6 -19 2 -19 7 0 13 9 13 19 0 10 -1 18 -3 18 -1
0 -7 -8 -12 -18z"/>
<path d="M1323 1715 c0 -7 6 -11 14 -8 7 3 13 6 13 8 0 2 -6 5 -13 8 -8 3 -14
-1 -14 -8z"/>
<path d="M2115 1700 c-3 -5 -1 -10 4 -10 6 0 11 5 11 10 0 6 -2 10 -4 10 -3 0
-8 -4 -11 -10z"/>
<path d="M2145 1660 c-3 -6 1 -7 9 -4 18 7 21 14 7 14 -6 0 -13 -4 -16 -10z"/>
<path d="M2177 1543 c3 -7 6 -13 8 -13 2 0 5 6 8 13 3 8 -1 14 -8 14 -7 0 -11
-6 -8 -14z"/>
<path d="M1790 1391 c0 -6 4 -13 10 -16 6 -3 7 1 4 9 -7 18 -14 21 -14 7z"/>
<path d="M2230 1270 c-6 -11 -7 -20 -3 -20 4 0 1 -5 -7 -11 -13 -9 -13 -10 0
-6 8 2 14 10 13 16 -2 6 1 11 5 11 5 0 9 7 9 15 0 20 -4 19 -17 -5z"/>
<path d="M1896 1211 c-3 -4 3 -16 13 -25 14 -13 18 -14 18 -2 0 8 -5 14 -11
13 -6 -1 -10 4 -8 11 2 14 -4 16 -12 3z"/>
<path d="M2155 940 c3 -5 8 -10 11 -10 2 0 4 5 4 10 0 6 -5 10 -11 10 -5 0 -7
-4 -4 -10z"/>
<path d="M1950 700 c0 -5 5 -10 11 -10 5 0 7 5 4 10 -3 6 -8 10 -11 10 -2 0
-4 -4 -4 -10z"/>
<path d="M1920 693 c7 -3 4 -10 -7 -19 -17 -12 -16 -13 5 -7 23 6 26 25 4 29
-8 2 -8 0 -2 -3z"/>
<path d="M1507 2229 c7 -7 15 -10 18 -7 3 3 -2 9 -12 12 -14 6 -15 5 -6 -5z"/>
<path d="M1007 2109 c7 -7 15 -10 18 -7 3 3 -2 9 -12 12 -14 6 -15 5 -6 -5z"/>
<path d="M1199 2028 c-6 -20 -6 -39 0 -42 4 -3 7 6 7 20 0 20 -4 32 -7 22z"/>
<path d="M1199 1878 c-5 -18 -6 -38 -1 -34 7 8 12 36 6 36 -2 0 -4 -1 -5 -2z"/>
<path d="M801 2101 c-8 -5 -9 -11 -3 -15 5 -3 12 1 16 9 6 17 6 18 -13 6z"/>
<path d="M495 1830 c-3 -5 -5 -10 -3 -11 33 -8 38 -7 27 7 -14 17 -16 17 -24
4z"/>
<path d="M445 1741 c-3 -6 3 -9 14 -8 11 0 17 5 15 9 -7 11 -22 10 -29 -1z"/>
<path d="M970 1610 c0 -17 17 -47 23 -40 2 3 -2 16 -10 30 -7 14 -13 18 -13
10z"/>
<path d="M1450 1440 c0 -5 5 -10 11 -10 5 0 7 5 4 10 -3 6 -8 10 -11 10 -2 0
-4 -4 -4 -10z"/>
<path d="M1329 1298 c-6 -22 -5 -39 5 -47 8 -7 12 -1 12 20 1 16 -2 29 -7 29
-5 0 -9 -1 -10 -2z"/>
<path d="M1345 1160 c-4 -6 -11 -8 -16 -5 -16 10 -10 -2 9 -16 9 -7 14 -9 10
-5 -4 5 -3 15 3 23 6 7 9 13 6 13 -3 0 -9 -5 -12 -10z"/>
<path d="M1377 1023 c-4 -3 -7 -11 -7 -17 0 -6 5 -5 12 2 6 6 9 14 7 17 -3 3
-9 2 -12 -2z"/>
<path d="M1680 1001 c0 -6 4 -13 10 -16 6 -3 7 1 4 9 -7 18 -14 21 -14 7z"/>
<path d="M920 871 c-8 -6 -17 -8 -20 -6 -3 2 -17 -6 -30 -17 l-25 -20 25 14
c14 8 33 14 43 12 9 -1 17 2 17 7 0 6 5 7 12 3 7 -4 8 -3 4 4 -9 14 -7 14 -26
3z"/>
<path d="M522 859 c-24 -9 -26 -31 -4 -35 7 -1 8 0 2 3 -16 8 -12 20 9 26 11
2 25 0 32 -7 10 -8 10 -7 0 7 -7 9 -14 17 -15 16 0 0 -12 -4 -24 -10z"/>
<path d="M1070 860 c0 -5 6 -9 13 -7 6 1 11 -4 9 -11 -2 -10 2 -10 18 -2 23
12 27 22 6 14 -8 -3 -17 -1 -21 5 -8 14 -25 14 -25 1z"/>
<path d="M730 846 c0 -2 7 -7 16 -10 8 -3 12 -2 9 4 -6 10 -25 14 -25 6z"/>
<path d="M1006 838 c3 -4 9 -8 15 -8 5 0 9 4 9 8 0 5 -7 9 -15 9 -8 0 -12 -4
-9 -9z"/>
<path d="M1195 780 c3 -5 8 -10 11 -10 2 0 4 5 4 10 0 6 -5 10 -11 10 -5 0 -7
-4 -4 -10z"/>
<path d="M730 579 c0 -5 -4 -8 -9 -4 -5 3 -13 0 -17 -7 -4 -7 -4 -10 1 -6 4 4
13 4 19 -2 8 -6 12 -3 13 11 1 10 0 19 -3 19 -2 0 -4 -5 -4 -11z"/>
<path d="M1199 588 c-6 -20 -6 -39 0 -42 4 -3 7 6 7 20 0 20 -4 32 -7 22z"/>
<path d="M855 489 c-4 -6 -5 -12 -2 -15 2 -3 7 2 10 11 7 17 1 20 -8 4z"/>
<path d="M910 445 c0 -2 6 -8 13 -14 10 -8 14 -7 14 2 0 8 -6 14 -14 14 -7 0
-13 -1 -13 -2z"/>
<path d="M1016 415 c4 -8 8 -15 10 -15 2 0 4 7 4 15 0 8 -4 15 -10 15 -5 0 -7
-7 -4 -15z"/>
<path d="M1075 409 c-4 -6 -5 -12 -2 -15 2 -3 7 2 10 11 7 17 1 20 -8 4z"/>
<path d="M1591 868 c-1 -21 17 -34 31 -20 6 6 6 12 -3 17 -8 5 -10 4 -5 -3 4
-7 3 -12 -3 -12 -5 0 -12 8 -14 18 -4 15 -5 15 -6 0z"/>
<path d="M1430 861 c0 -6 4 -13 10 -16 6 -3 7 1 4 9 -7 18 -14 21 -14 7z"/>
<path d="M1567 839 c7 -7 15 -10 18 -7 3 3 -2 9 -12 12 -14 6 -15 5 -6 -5z"/>
<path d="M1375 819 c-4 -6 -5 -12 -2 -15 2 -3 7 2 10 11 7 17 1 20 -8 4z"/>
<path d="M1790 801 c0 -6 5 -13 10 -16 6 -4 7 -11 4 -17 -4 -7 -2 -8 5 -4 8 6
9 12 2 20 -6 7 -8 16 -4 19 3 4 1 7 -5 7 -7 0 -12 -4 -12 -9z"/>
<path d="M1690 565 c0 -8 2 -15 4 -15 2 0 6 7 10 15 3 8 1 15 -4 15 -6 0 -10
-7 -10 -15z"/>
<path d="M1636 513 c-6 -14 -5 -15 5 -6 7 7 10 15 7 18 -3 3 -9 -2 -12 -12z"/>
<path d="M1348 453 c7 -3 16 -2 19 1 4 3 -2 6 -13 5 -11 0 -14 -3 -6 -6z"/>
<path d="M1535 440 c3 -5 8 -10 11 -10 2 0 4 5 4 10 0 6 -5 10 -11 10 -5 0 -7
-4 -4 -10z"/>
<path d="M1430 421 c0 -6 4 -12 8 -15 5 -3 9 1 9 9 0 8 -4 15 -9 15 -4 0 -8
-4 -8 -9z"/>
<path d="M1400 406 c0 -2 7 -7 16 -10 8 -3 12 -2 9 4 -6 10 -25 14 -25 6z"/>
<path d="M1370 2388 c13 -14 49 -27 54 -20 3 5 0 9 -7 9 -7 0 -21 4 -32 8 -11
5 -18 6 -15 3z"/>
<path d="M905 2340 c-2 -3 5 -6 15 -7 11 -1 22 2 24 5 3 4 -4 8 -15 8 -11 0
-22 -3 -24 -6z"/>
<path d="M1617 2334 c-3 -3 -3 -12 0 -19 5 -14 33 -9 33 6 0 4 -7 5 -17 2 -11
-4 -14 -3 -9 5 8 13 3 16 -7 6z"/>
<path d="M1690 2306 c0 -2 7 -7 16 -10 8 -3 12 -2 9 4 -6 10 -25 14 -25 6z"/>
<path d="M1936 2187 c3 -10 9 -15 12 -12 3 3 0 11 -7 18 -10 9 -11 8 -5 -6z"/>
<path d="M1953 2140 c19 -25 20 -26 14 -8 -3 9 -1 19 6 21 7 3 2 4 -10 4 -18
-1 -20 -4 -10 -17z"/>
<path d="M490 2039 c0 -5 5 -7 10 -4 6 3 10 8 10 11 0 2 -4 4 -10 4 -5 0 -10
-5 -10 -11z"/>
<path d="M396 1938 c3 -5 10 -6 15 -3 13 9 11 12 -6 12 -8 0 -12 -4 -9 -9z"/>
<path d="M355 1851 c2 -19 18 -17 21 2 1 8 -4 14 -11 14 -7 0 -12 -7 -10 -16z"/>
<path d="M290 1740 c0 -5 5 -10 11 -10 5 0 7 5 4 10 -3 6 -8 10 -11 10 -2 0
-4 -4 -4 -10z"/>
<path d="M2280 1720 c0 -5 5 -10 11 -10 5 0 7 5 4 10 -3 6 -8 10 -11 10 -2 0
-4 -4 -4 -10z"/>
<path d="M2335 1560 c-3 -6 1 -7 9 -4 18 7 21 14 7 14 -6 0 -13 -4 -16 -10z"/>
<path d="M207 1399 c7 -9 10 -19 6 -22 -3 -4 -1 -7 5 -7 17 0 15 16 -5 31 -16
12 -17 12 -6 -2z"/>
<path d="M2365 1340 c3 -5 8 -10 11 -10 2 0 4 5 4 10 0 6 -5 10 -11 10 -5 0
-7 -4 -4 -10z"/>
<path d="M210 1333 c5 -2 8 -9 4 -14 -3 -5 0 -9 6 -9 15 0 7 23 -8 26 -7 1 -8
0 -2 -3z"/>
<path d="M2363 1275 c0 -8 4 -12 9 -9 5 3 6 10 3 15 -9 13 -12 11 -12 -6z"/>
<path d="M206 1222 c-3 -5 1 -9 9 -9 8 0 12 4 9 9 -3 4 -7 8 -9 8 -2 0 -6 -4
-9 -8z"/>
<path d="M2323 1047 c-3 -5 2 -15 11 -23 9 -8 14 -11 11 -8 -2 4 0 14 5 24 6
12 5 17 -6 17 -8 0 -17 -5 -21 -10z"/>
<path d="M240 991 c0 -6 4 -13 10 -16 6 -3 7 1 4 9 -7 18 -14 21 -14 7z"/>
<path d="M280 910 c-9 -6 -10 -10 -3 -10 6 0 15 5 18 10 8 12 4 12 -15 0z"/>
<path d="M370 740 c0 -6 4 -9 9 -6 5 4 12 1 14 -4 3 -6 4 -5 3 2 -3 15 -26 23
-26 8z"/>
<path d="M522 550 c-7 -12 -8 -20 -2 -20 5 0 10 5 10 11 0 8 6 7 18 -2 16 -13
16 -13 2 6 -8 11 -15 21 -15 22 0 1 -6 -7 -13 -17z"/>
<path d="M1913 425 c0 -8 4 -12 9 -9 5 3 6 10 3 15 -9 13 -12 11 -12 -6z"/>
<path d="M936 289 c2 -4 12 -6 22 -5 9 2 20 -2 24 -8 5 -7 8 -6 8 4 1 9 6 5
15 -10 8 -14 14 -20 14 -15 1 23 -20 39 -53 40 -19 1 -33 -2 -30 -6z"/>
<path d="M1593 271 c0 -11 5 -18 9 -15 4 3 5 11 1 19 -7 21 -12 19 -10 -4z"/>
<path d="M1433 237 c-3 -5 0 -14 6 -20 9 -9 10 -7 5 7 -5 13 -4 17 4 12 6 -3
13 -3 16 2 3 5 -2 9 -10 9 -8 0 -17 -4 -21 -10z"/>
<path d="M1516 238 c3 -4 11 -5 19 -1 21 7 19 12 -4 10 -11 0 -18 -5 -15 -9z"/>
</g>
</svg>
